<svg width="40.000000" height="40.000000" viewBox="0 0 40 40" fill="none" xmlns="http://www.w3.org/2000/svg" xmlns:xlink="http://www.w3.org/1999/xlink">
	<desc>
			Created with Pixso.
	</desc>
	<defs/>
	<rect id="Rectangle 5048" x="40.000000" y="40.000000" rx="20.000000" width="40.000000" height="40.000000" transform="rotate(180 40.000000 40.000000)" fill="#FFFFFF" fill-opacity="1.000000"/>
	<path id="Vector 6" d="M18.2529 14.9438L18.2246 14.9414C17.144 13.655 17.3057 11.7954 18.5923 10.7148C19.8789 9.63428 21.7383 9.79614 22.8188 11.0825L22.8164 11.1106L18.2529 14.9438ZM22.7812 28.6104L22.7827 28.6384C21.6787 29.9048 19.8164 30.0322 18.5503 28.928C17.2842 27.824 17.1567 25.9614 18.2607 24.6953L18.2891 24.6934L22.7812 28.6104Z" fill="#FFFFFF" fill-opacity="1.000000" fill-rule="nonzero"/>
	<path id="Vector 6" d="M20.522 13.012L26.3638 19.967L20.522 26.667" stroke="#001139" stroke-opacity="1.000000" stroke-width="6.000000" stroke-linejoin="round" stroke-linecap="round"/>
	<path id="Vector 7" d="M25.894 17.0181L25.9141 16.998C27.5942 16.998 28.9141 18.3181 28.9141 19.998C28.9141 21.678 27.5942 22.998 25.9141 22.998L25.894 22.978L25.894 17.0181ZM13.2017 22.978L13.1816 22.998C11.5015 22.998 10.1816 21.678 10.1816 19.998C10.1816 18.3181 11.5015 16.998 13.1816 16.998L13.2017 17.0181L13.2017 22.978Z" fill="#FFFFFF" fill-opacity="1.000000" fill-rule="nonzero"/>
	<path id="Vector 7" d="M25.9141 19.998L13.1816 19.998" stroke="#001139" stroke-opacity="1.000000" stroke-width="6.000000" stroke-linecap="round"/>
</svg>
