<svg width="40" height="39" viewBox="0 0 40 39" fill="none" xmlns="http://www.w3.org/2000/svg">
<g id="gg:menu-right">
<path id="Vector" d="M36.6668 29.2581C36.6668 30.1519 35.9235 30.875 35.0085 30.875H21.6585C21.2187 30.875 20.7969 30.7046 20.4859 30.4014C20.1749 30.0982 20.0002 29.6869 20.0002 29.2581C20.0002 28.8293 20.1749 28.418 20.4859 28.1148C20.7969 27.8116 21.2187 27.6413 21.6585 27.6413H35.0085C35.9252 27.6413 36.6668 28.3644 36.6668 29.2581ZM36.6668 19.5C36.6668 20.3938 35.9235 21.1169 35.0085 21.1169H4.99183C4.55201 21.1169 4.13021 20.9465 3.81921 20.6433C3.50821 20.3401 3.3335 19.9288 3.3335 19.5C3.3335 19.0712 3.50821 18.6599 3.81921 18.3567C4.13021 18.0535 4.55201 17.8831 4.99183 17.8831H35.0085C35.9252 17.8831 36.6668 18.6079 36.6668 19.5ZM35.0085 11.3587C35.4483 11.3587 35.8701 11.1884 36.1811 10.8852C36.4921 10.582 36.6668 10.1707 36.6668 9.74187C36.6668 9.31305 36.4921 8.90179 36.1811 8.59857C35.8701 8.29535 35.4483 8.125 35.0085 8.125H14.9918C14.7741 8.125 14.5584 8.16682 14.3572 8.24808C14.156 8.32933 13.9732 8.44843 13.8192 8.59857C13.6652 8.74871 13.5431 8.92696 13.4597 9.12312C13.3764 9.31929 13.3335 9.52954 13.3335 9.74187C13.3335 9.95421 13.3764 10.1645 13.4597 10.3606C13.5431 10.5568 13.6652 10.735 13.8192 10.8852C13.9732 11.0353 14.156 11.1544 14.3572 11.2357C14.5584 11.3169 14.7741 11.3587 14.9918 11.3587H35.0085Z" fill="#F5F5F5"/>
</g>
</svg>
