<svg width="85" height="36" viewBox="0 0 85 36" fill="none" xmlns="http://www.w3.org/2000/svg">
<g id="Group">
<g id="Group_2">
<path id="Vector" d="M14.6204 17.7428C12.8645 17.7428 11.4312 16.3148 11.4312 14.5655V3.17729C11.4312 1.428 12.8645 0 14.6204 0C16.3763 0 17.8097 1.428 17.8097 3.17729V14.5655C17.8097 16.3148 16.3763 17.7428 14.6204 17.7428Z" fill="url(#paint0_linear_1937_64)"/>
<path id="Vector_2" d="M20.9994 35.6642C19.2434 35.6642 17.8101 34.2362 17.8101 32.4869V21.0987C17.8101 19.3494 19.2434 17.9214 20.9994 17.9214C22.7553 17.9214 24.1886 19.3494 24.1886 21.0987V32.4869C24.1886 34.2362 22.7911 35.6642 20.9994 35.6642Z" fill="url(#paint1_linear_1937_64)"/>
<path id="Vector_3" d="M17.8099 20.92C17.8099 22.6693 16.3765 24.0973 14.6206 24.0973H3.18929C1.43339 24.0973 0 22.6693 0 20.92C0 19.1707 1.43339 17.7427 3.18929 17.7427H14.6206C16.3765 17.7427 17.8099 19.135 17.8099 20.92Z" fill="url(#paint2_linear_1937_64)"/>
<path id="Vector_4" d="M35.6558 14.7083C35.6558 16.4576 34.2224 17.8856 32.4665 17.8856H20.9994C19.2434 17.8856 17.8101 16.4576 17.8101 14.7083C17.8101 12.959 19.2434 11.531 20.9994 11.531H32.4306C34.2224 11.531 35.6558 12.959 35.6558 14.7083Z" fill="url(#paint3_linear_1937_64)"/>
<path id="Vector_5" d="M5.1961 14.8866C7.05645 14.8866 8.56457 13.3842 8.56457 11.5308C8.56457 9.67748 7.05645 8.17505 5.1961 8.17505C3.33575 8.17505 1.82764 9.67748 1.82764 11.5308C1.82764 13.3842 3.33575 14.8866 5.1961 14.8866Z" fill="url(#paint4_linear_1937_64)"/>
<path id="Vector_6" d="M24.0452 8.71109C25.9056 8.71109 27.4137 7.20865 27.4137 5.3553C27.4137 3.50195 25.9056 1.99951 24.0452 1.99951C22.1849 1.99951 20.6768 3.50195 20.6768 5.3553C20.6768 7.20865 22.1849 8.71109 24.0452 8.71109Z" fill="url(#paint5_linear_1937_64)"/>
<path id="Vector_7" d="M30.4236 27.453C32.284 27.453 33.7921 25.9506 33.7921 24.0972C33.7921 22.2439 32.284 20.7415 30.4236 20.7415C28.5633 20.7415 27.0552 22.2439 27.0552 24.0972C27.0552 25.9506 28.5633 27.453 30.4236 27.453Z" fill="url(#paint6_linear_1937_64)"/>
<path id="Vector_8" d="M11.6107 33.6293C13.471 33.6293 14.9791 32.1269 14.9791 30.2735C14.9791 28.4202 13.471 26.9177 11.6107 26.9177C9.7503 26.9177 8.24219 28.4202 8.24219 30.2735C8.24219 32.1269 9.7503 33.6293 11.6107 33.6293Z" fill="url(#paint7_linear_1937_64)"/>
</g>
<g id="Group_3">
<g id="Group_4">
<g id="Group_5">
<path id="Vector_9" d="M44.1128 25.5255V22.2769H44.8653V25.5255H44.1128Z" fill="white"/>
<path id="Vector_10" d="M47.4455 25.5255V22.8838H46.4062V22.2769H49.2372V22.8838H48.198V25.5255H47.4455Z" fill="white"/>
<path id="Vector_11" d="M54.7556 25.5614C54.5048 25.5614 54.2539 25.5257 54.0389 25.4543C53.8239 25.3829 53.6447 25.2401 53.4656 25.0973C53.3222 24.9545 53.1789 24.776 53.1072 24.5618C53.0355 24.3476 52.9639 24.1334 52.9639 23.8835C52.9639 23.6336 52.9997 23.4194 53.1072 23.2052C53.1789 22.991 53.3222 22.8125 53.4656 22.6697C53.6089 22.5269 53.8239 22.3841 54.0389 22.3127C54.2539 22.2413 54.5048 22.2056 54.7556 22.2056C55.0423 22.2056 55.2931 22.2413 55.5081 22.3484C55.7231 22.4555 55.9382 22.5983 56.0815 22.7768L55.5798 23.2052C55.4723 23.0624 55.329 22.991 55.2215 22.9196C55.0781 22.8482 54.9348 22.8125 54.7914 22.8125C54.6481 22.8125 54.5048 22.8482 54.3614 22.8839C54.2181 22.9196 54.1106 22.991 54.0389 23.0981C53.9672 23.2052 53.8597 23.3123 53.8239 23.4194C53.7881 23.5622 53.7522 23.705 53.7522 23.8478C53.7522 23.9906 53.7881 24.1334 53.8239 24.2762C53.8597 24.419 53.9314 24.5261 54.0389 24.5975C54.1464 24.7046 54.2539 24.776 54.3614 24.8117C54.4689 24.8474 54.6123 24.8831 54.7914 24.8831C54.9706 24.8831 55.114 24.8474 55.2215 24.776C55.3648 24.7046 55.4723 24.6332 55.5798 24.4904L56.0815 24.9188C55.9382 25.0973 55.7231 25.2401 55.5081 25.3472C55.2931 25.5257 55.0423 25.5614 54.7556 25.5614Z" fill="white"/>
<path id="Vector_12" d="M59.2351 25.5612C58.9843 25.5612 58.7334 25.5255 58.5184 25.4184C58.3034 25.347 58.1242 25.2042 57.945 25.0614C57.8017 24.9186 57.6584 24.7401 57.5867 24.5259C57.515 24.3117 57.4434 24.0975 57.4434 23.8476C57.4434 23.5977 57.4792 23.3835 57.5867 23.1693C57.6584 22.9551 57.8017 22.7766 57.945 22.6338C58.1242 22.491 58.3034 22.3482 58.5184 22.2768C58.7334 22.2054 58.9843 22.134 59.2351 22.134C59.4859 22.134 59.7368 22.1697 59.9518 22.2768C60.1668 22.3482 60.346 22.491 60.5251 22.6338C60.7043 22.7766 60.8118 22.9551 60.8835 23.1693C60.991 23.3835 61.0268 23.5977 61.0268 23.8476C61.0268 24.0975 60.991 24.3117 60.8835 24.5259C60.776 24.7401 60.6685 24.9186 60.5251 25.0614C60.3818 25.2042 60.1668 25.3113 59.9518 25.4184C59.7368 25.5255 59.4859 25.5612 59.2351 25.5612ZM59.2351 24.9543C59.3784 24.9543 59.5218 24.9186 59.6293 24.8829C59.7368 24.8472 59.8443 24.7758 59.9518 24.6687C60.0593 24.5616 60.131 24.4545 60.1668 24.3474C60.2026 24.2046 60.2385 24.0975 60.2385 23.919C60.2385 23.7405 60.2026 23.6334 60.1668 23.4906C60.131 23.3478 60.0593 23.2407 59.9518 23.1693C59.8443 23.0979 59.7368 22.9908 59.6293 22.9551C59.5218 22.9194 59.3784 22.8837 59.2351 22.8837C59.0918 22.8837 58.9484 22.9194 58.8409 22.9551C58.7334 22.9908 58.6259 23.0622 58.5184 23.1693C58.4109 23.2764 58.3392 23.3835 58.3034 23.4906C58.2676 23.6334 58.2317 23.7762 58.2317 23.919C58.2317 24.0618 58.2676 24.2046 58.3034 24.3474C58.3392 24.4902 58.4109 24.5973 58.5184 24.6687C58.6259 24.7758 58.7334 24.8472 58.8409 24.8829C58.9484 24.9186 59.0918 24.9543 59.2351 24.9543Z" fill="white"/>
<path id="Vector_13" d="M66.4019 25.5255H65.6852V23.5621L64.7177 25.1685H64.3952L63.4276 23.5977V25.5255H62.7109V22.2769H63.3201L64.5743 24.2761L65.7569 22.2769H66.3661L66.4019 25.5255Z" fill="white"/>
<path id="Vector_14" d="M70.9174 22.8124C70.8099 22.6339 70.6307 22.4911 70.4157 22.4197C70.2007 22.3126 69.9499 22.2769 69.6632 22.2769H68.2656V25.5255H69.0182V24.633H69.6632C69.9499 24.633 70.2007 24.5973 70.4157 24.4902C70.6307 24.3831 70.7741 24.2404 70.9174 24.0976C71.0249 23.9191 71.0966 23.7049 71.0966 23.455C71.0966 23.2051 71.0607 22.9909 70.9174 22.8124ZM70.1649 23.8833C70.0574 23.9904 69.8782 24.0261 69.6273 24.0261H69.0182V22.8838H69.6273C69.8423 22.8838 70.0215 22.9195 70.1649 23.0266C70.2724 23.1337 70.344 23.2765 70.344 23.455C70.344 23.6335 70.2724 23.7762 70.1649 23.8833Z" fill="white"/>
<path id="Vector_15" d="M74.3575 22.2769H73.605L72.1357 25.5255H72.9241L73.2108 24.8472H74.7158L75.0025 25.5255H75.7909L74.3575 22.2769ZM73.4616 24.2403L73.9633 22.9909L74.5008 24.2403H73.4616Z" fill="white"/>
<path id="Vector_16" d="M80.2702 22.2769V25.5255H79.661L78.0126 23.5621V25.5255H77.2959V22.2769H77.9051L79.5177 24.2403V22.2769H80.2702Z" fill="white"/>
<path id="Vector_17" d="M85.0004 22.2769L83.7462 24.3831V25.5255H82.9937V24.3474L81.7036 22.2769H82.5278L83.3878 23.7049L84.2479 22.2769H85.0004Z" fill="white"/>
</g>
<g id="Group_6">
<path id="Vector_18" d="M44.1128 11.181C44.1128 11.0025 44.1128 11.4594 44.1128 11.3523C44.1128 11.2809 44.1128 10.7811 44.1845 10.674C44.292 10.4598 44.5786 10.3884 45.0445 10.3884C45.5462 10.3884 45.8687 10.5312 45.9762 10.7811C46.012 10.9239 46.0479 11.1024 46.0479 11.3523V17.4927C46.0479 17.6712 46.0479 17.7783 46.0479 17.8497C46.0479 17.9211 46.012 18.0639 45.9404 18.171C45.8329 18.3852 45.5462 18.4566 45.0803 18.4566C44.5786 18.4566 44.2561 18.3138 44.1845 18.0282C44.1486 17.9211 44.1128 17.7069 44.1128 17.457V11.3523V11.181Z" fill="white"/>
<path id="Vector_19" d="M47.4812 10.353H53.6448C53.8957 10.353 54.039 10.3887 54.1823 10.4244C54.2898 10.4958 54.3615 10.5672 54.3973 10.6743C54.4332 10.7814 54.469 10.9599 54.469 11.1384C54.469 11.3169 54.4332 11.4954 54.3973 11.6025C54.3615 11.7096 54.2898 11.781 54.2182 11.8524C54.0748 11.9238 53.8957 11.9595 53.6448 11.9595H51.5306V17.5287C51.5306 17.7072 51.5306 17.8143 51.5306 17.9214C51.5306 17.9928 51.4947 18.0999 51.4231 18.207C51.3514 18.3141 51.2797 18.3855 51.1364 18.4212C50.993 18.4569 50.8139 18.4926 50.5989 18.4926C50.3839 18.4926 50.1688 18.4569 50.0613 18.4212C49.9538 18.3855 49.8105 18.3141 49.7747 18.207C49.703 18.0999 49.703 17.9928 49.6672 17.9214C49.6672 17.85 49.6672 17.7072 49.6672 17.5287V11.9595H47.5171C47.2662 11.9595 47.1229 11.9238 46.9796 11.8881C46.872 11.8167 46.8004 11.7453 46.7645 11.6382C46.7287 11.5311 46.6929 11.3526 46.6929 11.1741C46.6929 10.9956 46.7287 10.8171 46.7645 10.71C46.8004 10.6029 46.872 10.5315 46.9437 10.4601C47.0512 10.3887 47.2304 10.353 47.4812 10.353Z" fill="white"/>
<path id="Vector_20" d="M62.5674 12.7092C63.0333 12.9234 63.2841 13.1733 63.2841 13.4589C63.2841 13.6017 63.2125 13.7801 63.105 14.0657C62.9975 14.3513 62.89 14.6012 62.8183 14.7797L61.5999 17.7428C61.4924 18.0641 61.3132 18.2783 61.0624 18.4211C60.9549 18.4568 60.8115 18.4925 60.6324 18.4925C60.4532 18.4925 60.3099 18.4211 60.1307 18.314C59.9873 18.1712 59.8798 18.0641 59.8082 17.9213L59.7365 17.7428C59.6648 17.6 59.4498 17.0288 59.0915 16.0292C59.0198 16.2077 58.9123 16.4933 58.769 16.886C58.6256 17.2787 58.5181 17.5286 58.4823 17.6357C58.4465 17.7428 58.4106 17.8142 58.4106 17.8499C58.4106 17.8856 58.3748 17.957 58.3031 18.0284C58.2673 18.0998 58.1956 18.2069 58.1239 18.2783C57.9448 18.4568 57.7298 18.5282 57.5148 18.5282C57.2997 18.5282 57.0847 18.4568 56.9414 18.3497C56.7981 18.2069 56.6906 18.0998 56.6189 17.957L54.9346 13.8872C54.863 13.673 54.8271 13.5303 54.8271 13.4589C54.8271 13.1733 55.0422 12.9234 55.4722 12.7449C55.723 12.6378 55.9022 12.6021 56.0455 12.6021C56.1889 12.6021 56.2964 12.6378 56.4039 12.7092C56.5114 12.7806 56.5472 12.852 56.583 12.8877C56.6189 12.9591 56.6547 13.0305 56.6547 13.0662C56.7981 13.3517 57.0489 14.0657 57.4431 15.1367L58.0881 13.3518C58.1239 13.209 58.2314 13.0661 58.3389 12.959C58.554 12.7449 58.769 12.6378 58.984 12.6378C59.199 12.6378 59.414 12.7092 59.5573 12.8163C59.7007 12.9234 59.8082 13.0662 59.8798 13.1733L59.9515 13.3518C60.3099 14.387 60.5249 14.9582 60.5965 15.1367L61.2774 13.316C61.4566 12.8519 61.7074 12.6021 62.0658 12.6021C62.2449 12.6021 62.3883 12.6378 62.5674 12.7092Z" fill="white"/>
<path id="Vector_21" d="M67.6922 13.2802C67.728 12.8518 68.0147 12.6733 68.5522 12.6733C68.8389 12.6733 69.0539 12.709 69.1973 12.7447C69.3406 12.7804 69.4481 12.8518 69.4839 12.9946C69.5556 13.1017 69.5556 13.2088 69.5914 13.2802C69.5914 13.3516 69.5914 13.4944 69.5914 13.6729V17.5642C69.5914 17.7427 69.5914 17.8498 69.5914 17.9569C69.5914 18.0283 69.5556 18.1354 69.4839 18.2425C69.3764 18.421 69.1256 18.5281 68.7314 18.5281C68.3372 18.5281 68.0506 18.4924 67.9072 18.3853C67.7639 18.2782 67.6922 18.1354 67.6564 17.9569C67.3697 18.3496 66.9397 18.5281 66.2946 18.5281C65.6496 18.5281 65.0763 18.2425 64.5029 17.6713C63.9654 17.1001 63.6787 16.4218 63.6787 15.6364C63.6787 14.851 63.9654 14.1727 64.5029 13.6015C65.0404 13.0303 65.6496 12.7447 66.3305 12.7447C66.5813 12.7447 66.7963 12.7804 67.0113 12.8875C67.2264 12.9589 67.3697 13.066 67.4414 13.1374C67.5489 13.1374 67.6205 13.2088 67.6922 13.2802ZM65.6496 15.6007C65.6496 15.8506 65.7571 16.0648 65.9363 16.2433C66.1155 16.4218 66.3663 16.5289 66.653 16.5289C66.9397 16.5289 67.1547 16.4218 67.3339 16.2433C67.513 16.0291 67.6205 15.8149 67.6205 15.6007C67.6205 15.3508 67.5489 15.1366 67.3697 14.9224C67.1905 14.7082 66.9755 14.6011 66.653 14.6011C66.3305 14.6011 66.1155 14.7082 65.9363 14.9224C65.7571 15.1009 65.6496 15.3508 65.6496 15.6007Z" fill="white"/>
<path id="Vector_22" d="M73.7481 12.6733C74.5006 12.6733 75.1098 12.9589 75.6115 13.5301C76.1132 14.1013 76.364 14.7796 76.364 15.6007V17.5642C76.364 17.7427 76.364 17.8498 76.364 17.9569C76.364 18.0283 76.3282 18.1354 76.2565 18.2425C76.149 18.4567 75.8623 18.5281 75.3965 18.5281C74.859 18.5281 74.5723 18.3853 74.5006 18.1354C74.4648 17.9926 74.4289 17.8141 74.4289 17.5642V15.6007C74.4289 15.3151 74.3573 15.0652 74.1781 14.8867C73.9989 14.7082 73.7839 14.6368 73.4614 14.6368C73.1389 14.6368 72.9239 14.7082 72.7447 14.8867C72.5655 15.0652 72.458 15.2794 72.458 15.6007V17.5642C72.458 17.7427 72.458 17.8498 72.458 17.9569C72.458 18.0283 72.4222 18.1354 72.3505 18.2425C72.243 18.4567 71.9563 18.5281 71.4905 18.5281C71.0246 18.5281 70.738 18.421 70.6305 18.2425C70.5946 18.1354 70.5588 18.0283 70.5229 17.9569C70.5229 17.8855 70.5229 17.7427 70.5229 17.5642V13.6372C70.5229 13.4587 70.5229 13.3516 70.5229 13.2802C70.5229 13.2088 70.5588 13.1017 70.6305 12.9946C70.738 12.8161 71.0246 12.709 71.4905 12.709C71.9563 12.709 72.2072 12.7804 72.3147 12.9589C72.3864 13.1017 72.4222 13.2445 72.4222 13.423C72.458 13.3873 72.5297 13.2802 72.6372 13.2088C72.7447 13.1017 72.8522 13.0303 72.9239 12.9589C73.1747 12.7447 73.4614 12.6733 73.7481 12.6733Z" fill="white"/>
<path id="Vector_23" d="M80.6283 14.6369L79.9116 14.6012V16.1363C79.9116 16.3505 79.9474 16.4933 80.0191 16.5647C80.0908 16.6361 80.1983 16.7075 80.3774 16.7075C80.5566 16.7075 80.7 16.7075 80.7716 16.7075C80.8791 16.7075 80.9508 16.7432 81.0583 16.8146C81.2375 16.9217 81.3092 17.1716 81.3092 17.5643C81.3092 18.0284 81.2016 18.314 80.9866 18.4211C80.8791 18.4568 80.7716 18.4925 80.7 18.5282C80.6283 18.5282 80.485 18.5282 80.3416 18.5282C79.5891 18.5282 78.9799 18.3497 78.5857 17.9927C78.1915 17.6357 77.9765 17.0645 77.9765 16.2434V14.6012C77.8332 14.6369 77.6898 14.6369 77.5107 14.6369C77.3315 14.6369 77.224 14.5655 77.1165 14.4584C77.009 14.3156 76.9731 14.1014 76.9731 13.8158C76.9731 13.5302 77.009 13.2803 77.0448 13.1732C77.0807 13.0661 77.1165 12.9233 77.1882 12.8876C77.2957 12.7805 77.439 12.7449 77.6182 12.7449L77.9765 12.7805V11.6382C77.9765 11.4597 77.9765 11.3526 77.9765 11.2455C77.9765 11.1741 78.0124 11.067 78.084 10.9956C78.1915 10.8171 78.4782 10.71 78.9441 10.71C79.4457 10.71 79.7324 10.8528 79.8399 11.1027C79.8758 11.2098 79.9116 11.424 79.9116 11.6739V12.7449C80.2341 12.7092 80.485 12.7092 80.6641 12.7092C80.8433 12.7092 80.9508 12.7092 81.0583 12.7092C81.13 12.7092 81.2375 12.7449 81.345 12.8163C81.5242 12.9234 81.6317 13.2089 81.6317 13.673C81.6317 14.1371 81.5242 14.4227 81.345 14.5298C81.2375 14.5655 81.13 14.6012 81.0583 14.6369C80.915 14.6012 80.8075 14.6369 80.6283 14.6369Z" fill="white"/>
</g>
</g>
</g>
</g>
<defs>
<linearGradient id="paint0_linear_1937_64" x1="-0.286808" y1="-0.0357005" x2="35.4128" y2="35.7988" gradientUnits="userSpaceOnUse">
<stop stop-color="#AF733E"/>
<stop offset="1" stop-color="#19EAD5"/>
</linearGradient>
<linearGradient id="paint1_linear_1937_64" x1="-0.286487" y1="-0.0356451" x2="35.4131" y2="35.7988" gradientUnits="userSpaceOnUse">
<stop stop-color="#AF733E"/>
<stop offset="1" stop-color="#19EAD5"/>
</linearGradient>
<linearGradient id="paint2_linear_1937_64" x1="-0.286677" y1="-0.0358609" x2="35.4129" y2="35.7986" gradientUnits="userSpaceOnUse">
<stop stop-color="#AF733E"/>
<stop offset="1" stop-color="#19EAD5"/>
</linearGradient>
<linearGradient id="paint3_linear_1937_64" x1="-0.286486" y1="-0.0357531" x2="35.4131" y2="35.7987" gradientUnits="userSpaceOnUse">
<stop stop-color="#AF733E"/>
<stop offset="1" stop-color="#19EAD5"/>
</linearGradient>
<linearGradient id="paint4_linear_1937_64" x1="-0.286613" y1="-0.0359222" x2="35.413" y2="35.7986" gradientUnits="userSpaceOnUse">
<stop stop-color="#AF733E"/>
<stop offset="1" stop-color="#19EAD5"/>
</linearGradient>
<linearGradient id="paint5_linear_1937_64" x1="-0.286576" y1="-0.0353815" x2="35.413" y2="35.7991" gradientUnits="userSpaceOnUse">
<stop stop-color="#AF733E"/>
<stop offset="1" stop-color="#19EAD5"/>
</linearGradient>
<linearGradient id="paint6_linear_1937_64" x1="-0.286745" y1="-0.0358719" x2="35.4129" y2="35.7986" gradientUnits="userSpaceOnUse">
<stop stop-color="#AF733E"/>
<stop offset="1" stop-color="#1D96A5"/>
</linearGradient>
<linearGradient id="paint7_linear_1937_64" x1="-0.286483" y1="-0.0356786" x2="35.4131" y2="35.7988" gradientUnits="userSpaceOnUse">
<stop stop-color="#AF733E" stop-opacity="0.73"/>
<stop offset="1" stop-color="#19EAD5"/>
</linearGradient>
</defs>
</svg>
