<svg width="18.683105" height="16.781937" viewBox="0 0 18.6831 16.7819" fill="none" xmlns="http://www.w3.org/2000/svg" xmlns:xlink="http://www.w3.org/1999/xlink">
	<desc>
			Created with Pixso.
	</desc>
	<defs/>
	<path id="Vector" d="M17.2998 0.00171661C17.0693 0.0185089 16.8428 0.0726395 16.6294 0.162003L16.6265 0.162003C16.4219 0.243217 15.4478 0.652908 13.9673 1.27391L8.66162 3.5085C4.854 5.11131 1.11182 6.68968 1.11182 6.68968L1.15625 6.67244C1.15625 6.67244 0.897949 6.75725 0.628418 6.94197C0.461914 7.04793 0.318848 7.18657 0.20752 7.3495C0.0751953 7.54356 -0.03125 7.84041 0.00830078 8.14731C0.0732422 8.66624 0.40918 8.97746 0.650879 9.14925C0.895508 9.32318 1.12793 9.4044 1.12793 9.4044L1.13379 9.4044L4.64355 10.5867C4.80078 11.092 5.71289 14.0907 5.93213 14.7814C6.06152 15.1939 6.1875 15.452 6.34473 15.6489C6.4209 15.7495 6.51025 15.8336 6.61719 15.9012C6.67285 15.9336 6.73242 15.9592 6.79395 15.9774L6.7583 15.9688C6.76904 15.9716 6.77734 15.9803 6.78564 15.9831C6.81396 15.991 6.8335 15.9939 6.87012 15.9996C7.42578 16.1678 7.87207 15.8228 7.87207 15.8228L7.89746 15.8027L9.96973 13.916L13.4424 16.5804L13.5215 16.6142C14.2451 16.9319 14.9785 16.7551 15.3657 16.4431C15.7563 16.129 15.9077 15.7272 15.9077 15.7272L15.9331 15.6626L18.6167 1.91359C18.6929 1.57434 18.7124 1.25665 18.6284 0.948311C18.5415 0.636246 18.3413 0.367851 18.0669 0.195778C17.8364 0.0557098 17.5693 -0.0119019 17.2998 0.00171661ZM17.2275 1.47516C17.2246 1.52043 17.2334 1.51541 17.2129 1.60237L17.2129 1.61028L14.5542 15.2162C14.543 15.2356 14.5234 15.278 14.4702 15.3204C14.4141 15.365 14.3696 15.393 14.1362 15.3003L9.88818 12.0437L7.32227 14.3825L7.86133 10.9397L14.8018 4.4709C15.0879 4.20497 14.9922 4.14891 14.9922 4.14891C15.0122 3.82259 14.5601 4.05331 14.5601 4.05331L5.80859 9.47484L5.80566 9.46046L1.61133 8.04813L1.61133 8.04524L1.60059 8.04309C1.60791 8.04065 1.61475 8.03777 1.62207 8.03447L1.64502 8.02296L1.66699 8.01506C1.66699 8.01506 5.4126 6.43669 9.21973 4.83388C11.126 4.03104 13.0464 3.22244 14.5234 2.59856C15.3994 2.22984 16.2764 1.86328 17.1543 1.49887C17.2129 1.47588 17.1851 1.47516 17.2275 1.47516Z" fill="#F5F5F5" fill-opacity="1.000000" fill-rule="nonzero"/>
</svg>
