<svg width="21.562500" height="12.937500" viewBox="0 0 21.5625 12.9375" fill="none" xmlns="http://www.w3.org/2000/svg" xmlns:xlink="http://www.w3.org/1999/xlink">
	<desc>
			Created with Pixso.
	</desc>
	<defs/>
	<path id="Vector" d="M21.0547 0.898438C21.2148 0.391724 21.0547 0.0233612 20.3472 0.0233612L17.9946 0.0233612C17.4014 0.0233612 17.1274 0.345901 16.9673 0.690903C16.9673 0.690903 15.7573 3.63777 14.0674 5.54829C13.519 6.10085 13.2681 6.28502 12.9712 6.28502C12.811 6.28502 12.6055 6.10085 12.6055 5.59457L12.6055 0.874634C12.6055 0.276276 12.4233 0 11.9204 0L8.2207 0C7.85498 0 7.62695 0.276276 7.62695 0.552536C7.62695 1.12799 8.47168 1.26634 8.56299 2.8777L8.56299 6.37891C8.56299 7.13853 8.42822 7.27734 8.12891 7.27734C7.33008 7.27734 5.38867 4.30756 4.22461 0.923599C3.99805 0.253357 3.76807 0 3.17432 0L0.799316 0C0.114258 0 0 0.322083 0 0.667542C0 1.28926 0.799316 4.41986 3.72217 8.56346C5.66309 11.3935 8.42627 12.9146 10.9155 12.9146C12.4233 12.9146 12.6055 12.5691 12.6055 11.9937L12.6055 9.85272C12.6055 9.16226 12.7427 9.04727 13.2222 9.04727C13.5645 9.04727 14.1812 9.231 15.5742 10.5894C17.1729 12.2008 17.4468 12.9375 18.3374 12.9375L20.6895 12.9375C21.3745 12.9375 21.6943 12.5921 21.5117 11.9245C21.3066 11.257 20.5298 10.2903 19.5249 9.13936C18.9766 8.49518 18.1548 7.78137 17.9038 7.43591C17.5615 6.97546 17.6523 6.79129 17.9038 6.37711C17.8809 6.37711 20.7583 2.27934 21.0547 0.896637L21.0547 0.898438Z" fill="#F5F5F5" fill-opacity="1.000000" fill-rule="evenodd"/>
</svg>
